<svg xmlns="http://www.w3.org/2000/svg" xmlns:xlink="http://www.w3.org/1999/xlink" width="500" zoomAndPan="magnify" viewBox="0 0 375 374.999991" height="500" preserveAspectRatio="xMidYMid meet" version="1.0"><defs><clipPath id="04c7d9883c"><path d="M 51 31.175781 L 324.539062 31.175781 L 324.539062 343.925781 L 51 343.925781 Z M 51 31.175781 " clip-rule="nonzero"/></clipPath></defs><g clip-path="url(#04c7d9883c)"><path fill="#000000" d="M 204.367188 32.609375 C 196.25 40.347656 187.195312 45.277344 179.203125 51.640625 C 170.210938 58.8125 163.21875 67.609375 157.285156 77.21875 C 149.542969 89.757812 146.109375 104.109375 142.734375 118.207031 C 138.988281 133.929688 137.054688 150.023438 137.992188 166.246094 C 138.613281 176.539062 139.300781 187.082031 142.984375 196.691406 C 146.980469 206.984375 153.601562 216.09375 159.65625 225.390625 C 170.210938 241.609375 185.570312 251.21875 202.367188 259.328125 C 217.539062 266.691406 233.402344 271.554688 249.824219 274.988281 C 268.054688 278.792969 286.226562 278.105469 304.335938 274.425781 C 308.957031 273.492188 313.515625 272.367188 318.070312 271.308594 C 320.382812 270.808594 322.503906 271.492188 323.628906 273.550781 C 324.503906 275.175781 324.253906 276.921875 322.628906 278.480469 C 310.953125 289.960938 300.089844 302.3125 286.914062 312.109375 C 265.621094 328.015625 242.207031 338.996094 215.417969 342.054688 C 198.996094 343.925781 182.761719 343.488281 166.527344 340.867188 C 159.78125 339.808594 153.851562 336.003906 147.417969 333.695312 C 128.25 326.707031 112.765625 314.355469 97.464844 301.316406 C 76.796875 283.722656 64.246094 261.324219 56.566406 235.746094 C 51.320312 218.277344 50.820312 200.308594 51.382812 182.28125 C 52.382812 150.273438 64.433594 122.011719 82.292969 96.246094 C 97.214844 74.660156 116.636719 57.378906 140.488281 45.835938 C 156.410156 38.226562 173.332031 33.484375 191.253906 32.546875 C 195.4375 32.363281 199.558594 31.175781 204.367188 32.609375 Z M 204.367188 32.609375 " fill-opacity="1" fill-rule="nonzero"/></g></svg>